<svg version="1.2" xmlns="http://www.w3.org/2000/svg" viewBox="0 0 40 36" width="40" height="36">
	<title>Fauna_Logo-svg</title>
	<defs>
		<clipPath clipPathUnits="userSpaceOnUse" id="cp1">
			<path d="m0 0h136v36h-136z"/>
		</clipPath>
	</defs>
	<style>
		.s0 { fill: #3a1ab6 } 
	</style>
	<g id="Clip-Path" clip-path="url(#cp1)">
		<g id="Layer">
			<path id="Layer" class="s0" d="m31.8 5.6l-2.7 3.6c-1.4 1.7-2.4 6-3.7 9.4-1.9 4.8-4.7 6.1-9.4 8.2-3.7 1.6-8.7 3.6-14.7 9.3l9-11.6 1.8-1.3-1.4 0.6-2.3-0.8c-1.3-0.5-1.7-1-2-2.3-0.4-1.2-1.1-3.9-1.6-5.3l7.7 3.6v-0.1l-7.1-4 1.6 0.8-2.6-1.4-0.6-0.3c-1.5-0.9-2-1.8-2.3-3.7-0.4-2.8-1.5-10.3-1.5-10.3l15.7 11.2 5.7 4.1-1.8-2c0.5-0.4 1-1 1.2-1.6 0.7-2.1 1.7-3.4 3.9-4.1 1.4-0.5 7.1-2 7.1-2z"/>
		</g>
	</g>
</svg>